<svg width="234" height="21" viewBox="0 0 234 21" fill="none" xmlns="http://www.w3.org/2000/svg">
<path d="M1.49219 10.1699C1.49219 15.9941 4.33138 18.9062 10.0098 18.9062C15.9525 18.9062 18.9238 15.9941 18.9238 10.1699C18.9238 4.41862 16.0436 1.54297 10.2832 1.54297C4.42253 1.54297 1.49219 4.41862 1.49219 10.1699ZM0.0566406 10.1152C0.0566406 3.58008 3.46549 0.3125 10.2832 0.3125C17.0007 0.3125 20.3594 3.58008 20.3594 10.1152C20.3594 16.7962 17.0007 20.1367 10.2832 20.1367C3.46549 20.1367 0.0566406 16.7962 0.0566406 10.1152ZM14.1797 15.4062C13.0404 15.8711 11.7188 16.1035 10.2148 16.1035C6.42318 16.1035 4.52734 14.0846 4.52734 10.0469C4.52734 6.25521 6.42318 4.35938 10.2148 4.35938C11.7188 4.35938 13.0404 4.5918 14.1797 5.05664V6.39648C13.0404 5.86784 11.7826 5.60352 10.4062 5.60352C7.44401 5.60352 5.96289 7.08464 5.96289 10.0469C5.96289 13.2552 7.44401 14.8594 10.4062 14.8594C11.7826 14.8594 13.0404 14.5951 14.1797 14.0664V15.4062ZM30.0801 20V17.9492C37.3262 12.9635 40.9492 8.9987 40.9492 6.05469C40.9492 3.59375 39.3997 2.36328 36.3008 2.36328C34.2956 2.36328 32.4043 2.86458 30.627 3.86719V1.67969C32.4043 0.768229 34.2956 0.3125 36.3008 0.3125C41.0859 0.3125 43.4785 2.22656 43.4785 6.05469C43.4785 9.42708 40.2201 13.3919 33.7031 17.9492H43.4785V20H30.0801ZM49.0977 10.1699C49.0977 15.4473 51.0254 18.0859 54.8809 18.0859C58.6361 18.0859 60.5137 15.4473 60.5137 10.1699C60.5137 4.96549 58.6361 2.36328 54.8809 2.36328C51.0254 2.36328 49.0977 4.96549 49.0977 10.1699ZM46.4316 10.252C46.4316 3.62565 49.248 0.3125 54.8809 0.3125C60.4134 0.3125 63.1797 3.62565 63.1797 10.252C63.1797 16.8418 60.4134 20.1367 54.8809 20.1367C49.248 20.1367 46.4316 16.8418 46.4316 10.252ZM65.5176 20V17.9492C72.7637 12.9635 76.3867 8.9987 76.3867 6.05469C76.3867 3.59375 74.8372 2.36328 71.7383 2.36328C69.7331 2.36328 67.8418 2.86458 66.0645 3.86719V1.67969C67.8418 0.768229 69.7331 0.3125 71.7383 0.3125C76.5234 0.3125 78.916 2.22656 78.916 6.05469C78.916 9.42708 75.6576 13.3919 69.1406 17.9492H78.916V20H65.5176ZM81.1855 20V17.9492C88.4316 12.9635 92.0547 8.9987 92.0547 6.05469C92.0547 3.59375 90.5052 2.36328 87.4062 2.36328C85.401 2.36328 83.5098 2.86458 81.7324 3.86719V1.67969C83.5098 0.768229 85.401 0.3125 87.4062 0.3125C92.1914 0.3125 94.584 2.22656 94.584 6.05469C94.584 9.42708 91.3255 13.3919 84.8086 17.9492H94.584V20H81.1855ZM105.193 20V0.449219H113.123C117.115 0.449219 119.111 2.19466 119.111 5.68555C119.111 9.48633 116.382 11.806 110.922 12.6445L110.402 10.5117C114.413 9.91927 116.418 8.34701 116.418 5.79492C116.418 3.62565 115.242 2.54102 112.891 2.54102H107.723V20H105.193ZM122.338 12.4531V0.449219H124.867V12.4531C124.867 16.2083 126.736 18.0859 130.473 18.0859C134.21 18.0859 136.078 16.2083 136.078 12.4531V0.449219H138.607V12.4531C138.607 17.5755 135.896 20.1367 130.473 20.1367C125.049 20.1367 122.338 17.5755 122.338 12.4531ZM157.885 19.2344C156.308 19.8359 154.608 20.1367 152.785 20.1367C145.703 20.1367 142.162 16.7415 142.162 9.95117C142.162 3.52539 145.58 0.3125 152.416 0.3125C154.376 0.3125 156.199 0.585938 157.885 1.13281V3.32031C156.199 2.68229 154.467 2.36328 152.689 2.36328C147.357 2.36328 144.691 4.89258 144.691 9.95117C144.691 15.3743 147.316 18.0859 152.566 18.0859C153.405 18.0859 154.335 17.9766 155.355 17.7578V11.1133H157.885V19.2344ZM162.068 20V0.449219H164.598V9.0625H176.15V0.449219H178.68V20H176.15V11.1133H164.598V20H162.068ZM183.984 20H181.359L189.658 0.449219H192.461L200.801 20H197.998L195.469 13.8477H189.002L189.699 11.7969H194.621L190.971 2.9375L183.984 20ZM216.66 0.449219V2.5H210.508V20H207.979V2.5H201.826V0.449219H216.66ZM219.408 19.3164V16.9922C221.459 17.7214 223.674 18.0859 226.053 18.0859C229.416 18.0859 231.098 16.8555 231.098 14.3945C231.098 12.2982 229.858 11.25 227.379 11.25H224.863C220.771 11.25 218.725 9.47266 218.725 5.91797C218.725 2.18099 221.345 0.3125 226.586 0.3125C228.865 0.3125 230.984 0.585938 232.943 1.13281V3.45703C230.984 2.72786 228.865 2.36328 226.586 2.36328C223.031 2.36328 221.254 3.54818 221.254 5.91797C221.254 8.01432 222.457 9.0625 224.863 9.0625H227.379C231.544 9.0625 233.627 10.8398 233.627 14.3945C233.627 18.2227 231.102 20.1367 226.053 20.1367C223.674 20.1367 221.459 19.8633 219.408 19.3164Z" fill="white"/>
</svg>
