<svg width="287" height="125" viewBox="0 0 287 125" fill="none" xmlns="http://www.w3.org/2000/svg">
<rect x="15.5" y="1.5" width="270" height="122" fill="white" stroke="black" stroke-width="3"/>
<rect x="82.5" y="62.5" width="137.626" height="45.5294" stroke="black" stroke-width="3"/>
<path d="M137.439 84.271C138.754 84.4257 139.691 84.8703 140.252 85.605C140.813 86.3203 141.093 87.1903 141.093 88.215C141.093 88.853 140.996 89.462 140.803 90.042C140.61 90.6027 140.378 91.086 140.107 91.492C139.836 91.8787 139.604 92.13 139.411 92.246C138.638 92.7487 136.279 93 132.335 93H126.709V76.47H133.524C135.071 76.47 136.318 76.557 137.265 76.731C138.232 76.8857 139.015 77.253 139.614 77.833C140.213 78.3937 140.513 79.254 140.513 80.414C140.513 81.4193 140.262 82.2313 139.759 82.85C139.276 83.4687 138.502 83.894 137.439 84.126V84.271ZM135.119 79.979C134.926 79.7857 134.694 79.6697 134.423 79.631C134.172 79.573 133.766 79.544 133.205 79.544C132.644 79.544 132.219 79.5537 131.929 79.573V83.111H132.219C132.316 83.111 132.722 83.111 133.437 83.111C134.152 83.111 134.626 83.0627 134.858 82.966C135.032 82.8887 135.187 82.6857 135.322 82.357C135.477 82.0283 135.554 81.6707 135.554 81.284C135.554 80.704 135.409 80.269 135.119 79.979ZM135.612 89.665C135.747 89.549 135.854 89.3363 135.931 89.027C136.028 88.6983 136.076 88.3697 136.076 88.041C136.076 87.635 136.018 87.258 135.902 86.91C135.805 86.5427 135.67 86.2817 135.496 86.127C135.322 85.953 135.071 85.837 134.742 85.779C134.433 85.721 133.901 85.692 133.147 85.692C132.664 85.692 132.258 85.7017 131.929 85.721V89.926C132.838 89.9453 133.65 89.9357 134.365 89.897C135.08 89.839 135.496 89.7617 135.612 89.665ZM158.733 76.47V85.721C158.733 87.635 158.521 89.1333 158.095 90.216C157.689 91.2793 156.916 92.0623 155.775 92.565C154.635 93.0677 152.972 93.319 150.787 93.319C149.183 93.319 147.829 93.1547 146.727 92.826C145.625 92.478 144.746 91.8303 144.088 90.883C143.45 89.9357 143.131 88.6017 143.131 86.881V76.47H148.351V85.779C148.351 86.8037 148.4 87.5867 148.496 88.128C148.612 88.65 148.864 89.056 149.25 89.346C149.637 89.6167 150.227 89.752 151.019 89.752C151.503 89.752 151.957 89.7037 152.382 89.607C152.808 89.5103 153.098 89.3653 153.252 89.172C153.426 88.94 153.513 88.099 153.513 86.649V76.47H158.733ZM170.621 87.722V93H165.401V87.78L159.833 76.47H165.14L167.344 81.835C167.576 82.3763 167.789 82.9467 167.982 83.546H168.04C168.253 82.8887 168.466 82.299 168.678 81.777L170.853 76.47H176.131L170.621 87.722Z" fill="black"/>
<path d="M70.3071 41.292V38.8848C72.4312 39.64 74.7251 40.0176 77.189 40.0176C80.6724 40.0176 82.4141 38.7432 82.4141 36.1943C82.4141 34.0231 81.1302 32.9375 78.5625 32.9375H75.957C71.7184 32.9375 69.5991 31.0967 69.5991 27.415C69.5991 23.5446 72.3132 21.6094 77.7412 21.6094C80.1012 21.6094 82.2961 21.8926 84.3257 22.459V24.8662C82.2961 24.111 80.1012 23.7334 77.7412 23.7334C74.0596 23.7334 72.2188 24.9606 72.2188 27.415C72.2188 29.5863 73.4648 30.6719 75.957 30.6719H78.5625C82.8766 30.6719 85.0337 32.5127 85.0337 36.1943C85.0337 40.1592 82.4188 42.1416 77.189 42.1416C74.7251 42.1416 72.4312 41.8584 70.3071 41.292ZM90.9102 31.8188C90.9102 37.2847 93.3787 40.0176 98.3159 40.0176C103.149 40.0176 105.566 37.2847 105.566 31.8188C105.566 26.4285 103.149 23.7334 98.3159 23.7334C93.3787 23.7334 90.9102 26.4285 90.9102 31.8188ZM88.1489 31.9038C88.1489 25.0409 91.5379 21.6094 98.3159 21.6094C104.99 21.6094 108.327 25.0409 108.327 31.9038C108.327 38.729 104.99 42.1416 98.3159 42.1416C91.5379 42.1416 88.1489 38.729 88.1489 31.9038ZM112.448 42V21.751H115.775L123.209 38.644L130.502 21.751H133.688V42H131.352V25.3901L124.158 42H122.091L114.784 25.3901V42H112.448ZM138.502 42V21.751H147.14C150.992 21.751 152.917 23.3228 152.917 26.4663C152.917 28.7697 151.662 30.417 149.151 31.4082C151.832 31.9085 153.172 33.4425 153.172 36.0103C153.172 40.0034 151.062 42 146.843 42H138.502ZM146.687 39.876C149.104 39.876 150.312 38.6488 150.312 36.1943C150.312 33.806 148.693 32.6118 145.455 32.6118H144.322V30.8984C148.193 30.3792 150.128 28.9821 150.128 26.707C150.128 24.819 149.052 23.875 146.899 23.875H141.122V39.876H146.687ZM157.335 42V21.751H165.973C169.825 21.751 171.75 23.37 171.75 26.6079C171.75 29.2417 169.867 31.1911 166.101 32.4561L173.053 42H169.598L163.155 32.895V31.1816C167.026 30.568 168.961 29.0812 168.961 26.7212C168.961 24.8521 167.885 23.9175 165.732 23.9175H159.955V42H157.335ZM189.068 21.751V23.875H178.448V30.6719H188.573V32.7959H178.448V39.876H189.281V42H175.829V21.751H189.068ZM193.246 42V21.751H201.883C205.735 21.751 207.661 23.37 207.661 26.6079C207.661 29.2417 205.777 31.1911 202.011 32.4561L208.963 42H205.508L199.065 32.895V31.1816C202.936 30.568 204.871 29.0812 204.871 26.7212C204.871 24.8521 203.795 23.9175 201.643 23.9175H195.865V42H193.246ZM213.792 31.8188C213.792 37.2847 216.261 40.0176 221.198 40.0176C226.031 40.0176 228.448 37.2847 228.448 31.8188C228.448 26.4285 226.031 23.7334 221.198 23.7334C216.261 23.7334 213.792 26.4285 213.792 31.8188ZM211.031 31.9038C211.031 25.0409 214.42 21.6094 221.198 21.6094C227.872 21.6094 231.209 25.0409 231.209 31.9038C231.209 38.729 227.872 42.1416 221.198 42.1416C214.42 42.1416 211.031 38.729 211.031 31.9038Z" fill="black"/>
</svg>
