<svg width="287" height="125" viewBox="0 0 287 125" fill="none" xmlns="http://www.w3.org/2000/svg">
<rect x="15.5" y="1.5" width="270" height="122" fill="white" stroke="black" stroke-width="3"/>
<rect x="82.5" y="62.5" width="137.626" height="45.5294" stroke="black" stroke-width="3"/>
<path d="M137.439 84.271C138.754 84.4257 139.691 84.8703 140.252 85.605C140.813 86.3203 141.093 87.1903 141.093 88.215C141.093 88.853 140.996 89.462 140.803 90.042C140.61 90.6027 140.378 91.086 140.107 91.492C139.836 91.8787 139.604 92.13 139.411 92.246C138.638 92.7487 136.279 93 132.335 93H126.709V76.47H133.524C135.071 76.47 136.318 76.557 137.265 76.731C138.232 76.8857 139.015 77.253 139.614 77.833C140.213 78.3937 140.513 79.254 140.513 80.414C140.513 81.4193 140.262 82.2313 139.759 82.85C139.276 83.4687 138.502 83.894 137.439 84.126V84.271ZM135.119 79.979C134.926 79.7857 134.694 79.6697 134.423 79.631C134.172 79.573 133.766 79.544 133.205 79.544C132.644 79.544 132.219 79.5537 131.929 79.573V83.111H132.219C132.316 83.111 132.722 83.111 133.437 83.111C134.152 83.111 134.626 83.0627 134.858 82.966C135.032 82.8887 135.187 82.6857 135.322 82.357C135.477 82.0283 135.554 81.6707 135.554 81.284C135.554 80.704 135.409 80.269 135.119 79.979ZM135.612 89.665C135.747 89.549 135.854 89.3363 135.931 89.027C136.028 88.6983 136.076 88.3697 136.076 88.041C136.076 87.635 136.018 87.258 135.902 86.91C135.805 86.5427 135.67 86.2817 135.496 86.127C135.322 85.953 135.071 85.837 134.742 85.779C134.433 85.721 133.901 85.692 133.147 85.692C132.664 85.692 132.258 85.7017 131.929 85.721V89.926C132.838 89.9453 133.65 89.9357 134.365 89.897C135.08 89.839 135.496 89.7617 135.612 89.665ZM158.733 76.47V85.721C158.733 87.635 158.521 89.1333 158.095 90.216C157.689 91.2793 156.916 92.0623 155.775 92.565C154.635 93.0677 152.972 93.319 150.787 93.319C149.183 93.319 147.829 93.1547 146.727 92.826C145.625 92.478 144.746 91.8303 144.088 90.883C143.45 89.9357 143.131 88.6017 143.131 86.881V76.47H148.351V85.779C148.351 86.8037 148.4 87.5867 148.496 88.128C148.612 88.65 148.864 89.056 149.25 89.346C149.637 89.6167 150.227 89.752 151.019 89.752C151.503 89.752 151.957 89.7037 152.382 89.607C152.808 89.5103 153.098 89.3653 153.252 89.172C153.426 88.94 153.513 88.099 153.513 86.649V76.47H158.733ZM170.621 87.722V93H165.401V87.78L159.833 76.47H165.14L167.344 81.835C167.576 82.3763 167.789 82.9467 167.982 83.546H168.04C168.253 82.8887 168.466 82.299 168.678 81.777L170.853 76.47H176.131L170.621 87.722Z" fill="black"/>
<path d="M106.723 21.751V23.875H96.1025V30.6719H106.227V32.7959H96.1025V42H93.4829V21.751H106.723ZM123.092 21.751V23.875H112.472V30.6719H122.596V32.7959H112.472V39.876H123.304V42H109.852V21.751H123.092ZM134.632 39.876C139.588 39.876 142.066 37.0251 142.066 31.3232C142.066 26.3577 139.588 23.875 134.632 23.875H129.889V39.876H134.632ZM127.269 42V21.751H134.632C141.335 21.751 144.686 24.9417 144.686 31.3232C144.686 38.4411 141.335 42 134.632 42H127.269ZM150.562 31.8188C150.562 37.2847 153.031 40.0176 157.968 40.0176C162.802 40.0176 165.218 37.2847 165.218 31.8188C165.218 26.4285 162.802 23.7334 157.968 23.7334C153.031 23.7334 150.562 26.4285 150.562 31.8188ZM147.801 31.9038C147.801 25.0409 151.19 21.6094 157.968 21.6094C164.642 21.6094 167.979 25.0409 167.979 31.9038C167.979 38.729 164.642 42.1416 157.968 42.1416C151.19 42.1416 147.801 38.729 147.801 31.9038ZM172.1 42V21.751H180.738C184.589 21.751 186.515 23.37 186.515 26.6079C186.515 29.2417 184.632 31.1911 180.865 32.4561L187.818 42H184.363L177.92 32.895V31.1816C181.79 30.568 183.726 29.0812 183.726 26.7212C183.726 24.8521 182.649 23.9175 180.497 23.9175H174.72V42H172.1ZM191.259 42H188.54L197.135 21.751H200.038L208.676 42H205.773L203.153 35.6279H196.456L197.178 33.5039H202.275L198.495 24.3281L191.259 42Z" fill="black"/>
</svg>
