<svg width="273" height="125" viewBox="0 0 273 125" fill="none" xmlns="http://www.w3.org/2000/svg">
<rect x="1.5" y="1.5" width="270" height="122" fill="white" stroke="black" stroke-width="3"/>
<rect x="68.5" y="62.5" width="137.626" height="45.5294" stroke="black" stroke-width="3"/>
<path d="M123.439 84.271C124.754 84.4257 125.691 84.8703 126.252 85.605C126.813 86.3203 127.093 87.1903 127.093 88.215C127.093 88.853 126.996 89.462 126.803 90.042C126.61 90.6027 126.378 91.086 126.107 91.492C125.836 91.8787 125.604 92.13 125.411 92.246C124.638 92.7487 122.279 93 118.335 93H112.709V76.47H119.524C121.071 76.47 122.318 76.557 123.265 76.731C124.232 76.8857 125.015 77.253 125.614 77.833C126.213 78.3937 126.513 79.254 126.513 80.414C126.513 81.4193 126.262 82.2313 125.759 82.85C125.276 83.4687 124.502 83.894 123.439 84.126V84.271ZM121.119 79.979C120.926 79.7857 120.694 79.6697 120.423 79.631C120.172 79.573 119.766 79.544 119.205 79.544C118.644 79.544 118.219 79.5537 117.929 79.573V83.111H118.219C118.316 83.111 118.722 83.111 119.437 83.111C120.152 83.111 120.626 83.0627 120.858 82.966C121.032 82.8887 121.187 82.6857 121.322 82.357C121.477 82.0283 121.554 81.6707 121.554 81.284C121.554 80.704 121.409 80.269 121.119 79.979ZM121.612 89.665C121.747 89.549 121.854 89.3363 121.931 89.027C122.028 88.6983 122.076 88.3697 122.076 88.041C122.076 87.635 122.018 87.258 121.902 86.91C121.805 86.5427 121.67 86.2817 121.496 86.127C121.322 85.953 121.071 85.837 120.742 85.779C120.433 85.721 119.901 85.692 119.147 85.692C118.664 85.692 118.258 85.7017 117.929 85.721V89.926C118.838 89.9453 119.65 89.9357 120.365 89.897C121.08 89.839 121.496 89.7617 121.612 89.665ZM144.733 76.47V85.721C144.733 87.635 144.521 89.1333 144.095 90.216C143.689 91.2793 142.916 92.0623 141.775 92.565C140.635 93.0677 138.972 93.319 136.787 93.319C135.183 93.319 133.829 93.1547 132.727 92.826C131.625 92.478 130.746 91.8303 130.088 90.883C129.45 89.9357 129.131 88.6017 129.131 86.881V76.47H134.351V85.779C134.351 86.8037 134.4 87.5867 134.496 88.128C134.612 88.65 134.864 89.056 135.25 89.346C135.637 89.6167 136.227 89.752 137.019 89.752C137.503 89.752 137.957 89.7037 138.382 89.607C138.808 89.5103 139.098 89.3653 139.252 89.172C139.426 88.94 139.513 88.099 139.513 86.649V76.47H144.733ZM156.621 87.722V93H151.401V87.78L145.833 76.47H151.14L153.344 81.835C153.576 82.3763 153.789 82.9467 153.982 83.546H154.04C154.253 82.8887 154.466 82.299 154.678 81.777L156.853 76.47H162.131L156.621 87.722Z" fill="black"/>
<path d="M108.625 42V21.751H111.244V30.6719H123.209V21.751H125.829V42H123.209V32.7959H111.244V42H108.625ZM131.323 42H128.604L137.2 21.751H140.103L148.74 42H145.837L143.218 35.6279H136.52L137.242 33.5039H142.34L138.559 24.3281L131.323 42ZM165.166 21.751V23.875H158.794V42H156.174V23.875H149.802V21.751H165.166Z" fill="black"/>
</svg>
