<svg width="512" height="512" viewBox="0 0 512 512" fill="none" xmlns="http://www.w3.org/2000/svg">
<rect width="512" height="512" rx="66" fill="#E8D5C7"/>
<path d="M106 378C106 341.549 135.549 312 172 312H340C376.451 312 406 341.549 406 378V512H106L106 378Z" fill="#3E3128"/>
<path d="M206 378H306V424C306 451.614 283.614 474 256 474V474C228.386 474 206 451.614 206 424V378Z" fill="#F09891"/>
<path d="M246 378H266V418C266 423.523 261.523 428 256 428V428C250.477 428 246 423.523 246 418V378Z" fill="#C87977"/>
<path d="M245.246 340.142C251.805 344.325 260.195 344.325 266.754 340.142L293.458 323.113C310.32 312.36 302.703 286.25 282.704 286.25H229.296C209.297 286.25 201.68 312.36 218.542 323.113L245.246 340.142Z" fill="black"/>
<circle cx="106" cy="256" r="50" fill="black"/>
<circle cx="90.9999" cy="249" r="25" fill="white"/>
<circle cx="125.5" cy="278.5" r="12.5" fill="white"/>
<circle cx="406" cy="256" r="50" fill="black"/>
<circle cx="391" cy="249" r="25" fill="white"/>
<circle cx="425.5" cy="278.5" r="12.5" fill="white"/>
<circle r="60" transform="matrix(-1 0 0 1 386 126)" fill="#E8D5C7"/>
<path d="M0 66C0 29.5492 29.5492 0 66 0H106V125H0V66Z" fill="#3E3128"/>
<path d="M0 123H66V158C66 194.451 36.4508 224 0 224V224V123Z" fill="#3E3128"/>
<path d="M86 0V68H101C138.555 68 169 37.5554 169 0V0L86 0Z" fill="#3E3128"/>
<rect x="66" y="67" width="120" height="120" rx="49" fill="#E8D5C7"/>
<path d="M512 66C512 29.5492 482.451 0 446 0H406V125H512V66Z" fill="#3E3128"/>
<path d="M512 123H446V158C446 194.451 475.549 224 512 224V224V123Z" fill="#3E3128"/>
<path d="M426 0V68H411C373.445 68 343 37.5554 343 0V0L426 0Z" fill="#3E3128"/>
<rect width="120" height="120" rx="49" transform="matrix(-1 0 0 1 446 67)" fill="#E8D5C7"/>
</svg>
