<?xml version="1.0" encoding="utf-8"?>
<!-- Generator: Adobe Illustrator 26.0.2, SVG Export Plug-In . SVG Version: 6.00 Build 0)  -->
<svg version="1.1" id="Layer_1" xmlns="http://www.w3.org/2000/svg" xmlns:xlink="http://www.w3.org/1999/xlink" x="0px" y="0px"
	 viewBox="0 0 374 1035" style="enable-background:new 0 0 374 1035;" xml:space="preserve">
<style type="text/css">
	.st0{fill-opacity:0.85;}
	.st1{fill:#14092C;}
	.st2{fill:#FFFFFF;}
</style>
<rect class="st0" width="374" height="1035"/>
<rect class="st1" width="374" height="44.4"/>
<path class="st2" d="M91.1,29.1V16.6H97c2.4,0,3.6,1,3.6,2.9c0,1.4-0.8,2.5-2.3,3.1c1.7,0.3,2.5,1.3,2.5,2.9c0,2.5-1.3,3.7-3.9,3.7
	h-5.8V29.1z M96.7,27.1c1,0,1.5-0.5,1.5-1.6c0-1.3-0.8-2-2.3-2h-0.7V22c1.9-0.3,2.9-1.1,2.9-2.4c0-0.7-0.4-1.1-1.3-1.1h-3.4V27h3.3
	V27.1z M106.5,22.8l-4.9-6.3h2.9l3.5,4.6l3.5-4.6h2.9l-4.9,6.3l4.9,6.3h-2.9l-3.5-4.6l-3.5,4.6h-2.9L106.5,22.8z M117.9,22.8
	c0,2.9,1.3,4.4,3.9,4.4c2.5,0,3.8-1.5,3.8-4.4s-1.3-4.3-3.8-4.3C119.2,18.5,117.9,19.9,117.9,22.8z M115.4,22.9
	c0-4.3,2.1-6.4,6.3-6.4c4.1,0,6.2,2.1,6.2,6.4c0,4.2-2.1,6.4-6.2,6.4C117.7,29.2,115.6,27.1,115.4,22.9z M133.9,27.1h5.9v-8.5h-3.4
	C136.5,23.3,135.6,26.1,133.9,27.1z M128.9,32.5v-5.4h1.6c2.4,0,3.6-2.8,3.6-8.5v-2h8.1v10.5h1.6v5.4h-2.3v-3.3h-10.3v3.3H128.9z"/>
<path class="st2" d="M186.8,29.1V16.6h5.6c2.6,0,3.9,1.2,3.9,3.5c0,2.6-1.8,4.1-5.3,4.6l-0.3-2.1c2.1-0.4,3.2-1.2,3.2-2.5
	c0-1-0.5-1.6-1.6-1.6h-3.1V29h-2.4V29.1z M206.4,16.6v2h-6.3v3.2h6v2.1h-6v3.3h6.4v2h-8.7V16.6H206.4z M208.7,29.1V16.6h8.2v2H211
	v10.5H208.7z M226.4,29.1v-9l-5.9,9h-2.2V16.6h2.2v9.1l5.9-9.1h2.2v12.6h-2.2V29.1z M241.3,28.6c-1.1,0.4-2.3,0.6-3.7,0.6
	c-4.5,0-6.8-2.2-6.8-6.5c0-4.1,2.3-6.2,6.8-6.2c1.4,0,2.6,0.2,3.7,0.6v2.1c-1.1-0.5-2.3-0.7-3.5-0.7c-3,0-4.5,1.4-4.5,4.2
	c0,3,1.5,4.5,4.5,4.5c1.3,0,2.4-0.2,3.5-0.7V28.6z M251.7,16.6v2h-3.6v10.5h-2.3V18.6h-3.6v-2H251.7z M253,29.1V16.6h5.6
	c2.6,0,3.8,1.2,3.8,3.5c0,2.6-1.8,4.1-5.3,4.6l-0.3-2.1c2.1-0.4,3.2-1.2,3.2-2.5c0-1-0.5-1.6-1.6-1.6h-3.1V29H253V29.1z M265.3,29.1
	H263l5.3-12.6h2.5l5.4,12.6h-2.5l-1.4-3.4h-4.2l0.8-2h2.5l-2-4.7L265.3,29.1z M277.8,29.1V16.6h2.3v10.5h5.8V16.6h2.3v10.5h1.6v5.4
	h-2.3v-3.3h-9.7V29.1z M299.6,29.1v-9l-5.9,9h-2.2V16.6h2.2v9.1l5.9-9.1h2.2v12.6h-2.2V29.1z M311.5,29.1V18.6h-3.1
	c-1.1,0-1.7,0.5-1.7,1.5c0,1.3,1.1,2.1,3.4,2.5v1.1l-3.8,5.5h-3l4-5.4c-2-0.9-3-2.1-3-3.6c0-2.4,1.4-3.5,4.1-3.5h5.4v12.6h-2.3V29.1
	z"/>
<ellipse class="st2" cx="164.9" cy="23.2" rx="2" ry="2"/>
<rect x="89.2" y="15" class="st1" width="57.9" height="20.7"/>
<rect x="183.9" y="13" class="st1" width="134.7" height="21.7"/>
<rect x="154.1" y="16" class="st1" width="21.5" height="14"/>
</svg>
