<svg width="149" height="56" viewBox="0 0 149 56" fill="none" xmlns="http://www.w3.org/2000/svg">
<path d="M111.507 55.2009L143.378 17.6639H79.6367L111.507 55.2009Z" fill="#0D2168"/>
<rect x="9.20068" y="17.6643" width="102.307" height="37.537" fill="#0D2168"/>
<path d="M41.8309 46V27.8457H44.1796L55.288 42.4707V27.8457H57.5096V46H55.161L44.0526 31.248V46H41.8309ZM73.7089 27.8457V29.75H64.1874V35.8438H73.2645V37.748H64.1874V44.0957H73.8993V46H61.8387V27.8457H73.7089ZM75.9305 27.8457H78.203L80.7548 43.6387L85.8837 27.8457H88.2323L93.7294 43.6387L96.6112 27.8457H98.7821L95.3671 46H92.1678L87.0389 30.791L82.0751 46H78.9139L75.9305 27.8457Z" fill="white"/>
</svg>
