<svg width="149" height="56" viewBox="0 0 149 56" fill="none" xmlns="http://www.w3.org/2000/svg">
<path d="M111.507 55.2009L143.378 17.6639H79.6367L111.507 55.2009Z" fill="#F34E57"/>
<rect x="9.20068" y="17.6643" width="102.307" height="37.537" fill="#F34E57"/>
<path d="M32.1035 30.2832V27.8457H34.3252V30.3086C35.4593 30.3932 36.585 30.5879 37.7021 30.8926V32.9238C36.1364 32.416 34.5579 32.1621 32.9668 32.1621C30.7493 32.1621 29.6406 32.7969 29.6406 34.0664C29.6406 35.2513 30.3389 35.8438 31.7354 35.8438H33.6396C36.6865 35.8438 38.21 37.1556 38.21 39.7793C38.21 41.9036 36.915 43.1393 34.3252 43.4863V46H32.1035V43.5752C30.6986 43.5329 29.3063 43.3255 27.9268 42.9531V40.9219C29.4925 41.4297 31.0752 41.6836 32.6748 41.6836C34.7992 41.6836 35.8613 41.0488 35.8613 39.7793C35.8613 38.5944 35.1208 38.002 33.6396 38.002H31.7354C28.8577 38.002 27.4189 36.6901 27.4189 34.0664C27.4189 31.7305 28.9805 30.4694 32.1035 30.2832ZM40.2412 46V44.0957C46.9697 39.4661 50.334 35.7845 50.334 33.0508C50.334 30.7656 48.8952 29.623 46.0176 29.623C44.1556 29.623 42.3994 30.0885 40.749 31.0195V28.9883C42.3994 28.1419 44.1556 27.7188 46.0176 27.7188C50.4609 27.7188 52.6826 29.4961 52.6826 33.0508C52.6826 36.1823 49.6569 39.8639 43.6055 44.0957H52.6826V46H40.2412ZM55.9961 27.8457H66.9648V29.75H58.002L57.6973 35.3613C58.6875 35.1751 59.7285 35.082 60.8203 35.082C65.3906 35.082 67.6758 36.8171 67.6758 40.2871C67.6758 44.1803 65.306 46.127 60.5664 46.127C58.9583 46.127 57.3079 45.873 55.6152 45.3652V43.334C57.3079 43.9264 59.0007 44.2227 60.6934 44.2227C63.7826 44.2227 65.3271 42.9108 65.3271 40.2871C65.3271 38.0866 63.8249 36.9863 60.8203 36.9863C58.916 36.9863 57.181 37.1556 55.6152 37.4941L55.9961 27.8457ZM72.5762 43.6514V46H70.2275V43.6514H72.5762ZM88.7119 34.917C88.7119 39.6227 85.9274 43.5286 80.3584 46.6348L79.1396 45.0225C82.2035 43.5329 84.3786 41.5059 85.665 38.9414C84.5563 39.4746 83.2191 39.7412 81.6533 39.7412C77.3031 39.7412 75.1279 37.7946 75.1279 33.9014C75.1279 29.8389 77.4258 27.8076 82.0215 27.8076C86.4818 27.8076 88.7119 30.1774 88.7119 34.917ZM86.4902 34.9932C86.4902 31.4723 84.9626 29.7119 81.9072 29.7119C78.9196 29.7119 77.4258 31.1084 77.4258 33.9014C77.4258 36.4404 78.873 37.71 81.7676 37.71C83.5788 37.71 85.0345 37.5068 86.1348 37.1006C86.3717 36.5928 86.4902 35.8903 86.4902 34.9932ZM104.708 34.917C104.708 39.6227 101.924 43.5286 96.3545 46.6348L95.1357 45.0225C98.1995 43.5329 100.375 41.5059 101.661 38.9414C100.552 39.4746 99.2152 39.7412 97.6494 39.7412C93.2992 39.7412 91.124 37.7946 91.124 33.9014C91.124 29.8389 93.4219 27.8076 98.0176 27.8076C102.478 27.8076 104.708 30.1774 104.708 34.917ZM102.486 34.9932C102.486 31.4723 100.959 29.7119 97.9033 29.7119C94.9157 29.7119 93.4219 31.1084 93.4219 33.9014C93.4219 36.4404 94.8691 37.71 97.7637 37.71C99.5749 37.71 101.031 37.5068 102.131 37.1006C102.368 36.5928 102.486 35.8903 102.486 34.9932Z" fill="white"/>
</svg>
