<svg width="162" height="56" viewBox="0 0 162 56" fill="none" xmlns="http://www.w3.org/2000/svg">
<path d="M124.507 55.2009L156.378 17.6639H92.6367L124.507 55.2009Z" fill="#F34E57"/>
<rect x="22.2007" y="17.6643" width="102.307" height="37.537" fill="#F34E57"/>
<path d="M45.1338 30.2832V27.8457H47.3555V30.3086C48.4896 30.3932 49.6152 30.5879 50.7324 30.8926V32.9238C49.1667 32.416 47.5882 32.1621 45.9971 32.1621C43.7796 32.1621 42.6709 32.7969 42.6709 34.0664C42.6709 35.2513 43.3691 35.8438 44.7656 35.8438H46.6699C49.7168 35.8438 51.2402 37.1556 51.2402 39.7793C51.2402 41.9036 49.9453 43.1393 47.3555 43.4863V46H45.1338V43.5752C43.7288 43.5329 42.3366 43.3255 40.957 42.9531V40.9219C42.5228 41.4297 44.1055 41.6836 45.7051 41.6836C47.8294 41.6836 48.8916 41.0488 48.8916 39.7793C48.8916 38.5944 48.151 38.002 46.6699 38.002H44.7656C41.888 38.002 40.4492 36.6901 40.4492 34.0664C40.4492 31.7305 42.0107 30.4694 45.1338 30.2832ZM65.167 46H62.8184V41.6836H53.2715V39.7793L60.5713 27.8457H63.0342L55.7217 39.7793H62.8184V33.3301H65.167V39.7793L67.0459 40.7441V41.6836H65.167V46ZM69.9658 27.8457H80.9346V29.75H71.9717L71.667 35.3613C72.6572 35.1751 73.6982 35.082 74.79 35.082C79.3604 35.082 81.6455 36.8171 81.6455 40.2871C81.6455 44.1803 79.2757 46.127 74.5361 46.127C72.9281 46.127 71.2777 45.873 69.585 45.3652V43.334C71.2777 43.9264 72.9704 44.2227 74.6631 44.2227C77.7523 44.2227 79.2969 42.9108 79.2969 40.2871C79.2969 38.0866 77.7946 36.9863 74.79 36.9863C72.8857 36.9863 71.1507 37.1556 69.585 37.4941L69.9658 27.8457ZM86.5459 43.6514V46H84.1973V43.6514H86.5459ZM102.682 34.917C102.682 39.6227 99.8971 43.5286 94.3281 46.6348L93.1094 45.0225C96.1732 43.5329 98.3483 41.5059 99.6348 38.9414C98.526 39.4746 97.1888 39.7412 95.623 39.7412C91.2728 39.7412 89.0977 37.7946 89.0977 33.9014C89.0977 29.8389 91.3955 27.8076 95.9912 27.8076C100.451 27.8076 102.682 30.1774 102.682 34.917ZM100.46 34.9932C100.46 31.4723 98.9323 29.7119 95.877 29.7119C92.8893 29.7119 91.3955 31.1084 91.3955 33.9014C91.3955 36.4404 92.8428 37.71 95.7373 37.71C97.5485 37.71 99.0042 37.5068 100.104 37.1006C100.341 36.5928 100.46 35.8903 100.46 34.9932ZM118.678 34.917C118.678 39.6227 115.893 43.5286 110.324 46.6348L109.105 45.0225C112.169 43.5329 114.344 41.5059 115.631 38.9414C114.522 39.4746 113.185 39.7412 111.619 39.7412C107.269 39.7412 105.094 37.7946 105.094 33.9014C105.094 29.8389 107.392 27.8076 111.987 27.8076C116.448 27.8076 118.678 30.1774 118.678 34.917ZM116.456 34.9932C116.456 31.4723 114.928 29.7119 111.873 29.7119C108.885 29.7119 107.392 31.1084 107.392 33.9014C107.392 36.4404 108.839 37.71 111.733 37.71C113.545 37.71 115 37.5068 116.101 37.1006C116.338 36.5928 116.456 35.8903 116.456 34.9932Z" fill="white"/>
</svg>
