<svg width="162" height="56" viewBox="0 0 162 56" fill="none" xmlns="http://www.w3.org/2000/svg">
<path d="M124.507 55.2009L156.378 17.6639H92.6367L124.507 55.2009Z" fill="#F34E57"/>
<rect x="22.2007" y="17.6643" width="102.307" height="37.537" fill="#F34E57"/>
<path d="M44.3799 30.2832V27.8457H46.6016V30.3086C47.7357 30.3932 48.8613 30.5879 49.9785 30.8926V32.9238C48.4128 32.416 46.8343 32.1621 45.2432 32.1621C43.0257 32.1621 41.917 32.7969 41.917 34.0664C41.917 35.2513 42.6152 35.8438 44.0117 35.8438H45.916C48.9629 35.8438 50.4863 37.1556 50.4863 39.7793C50.4863 41.9036 49.1914 43.1393 46.6016 43.4863V46H44.3799V43.5752C42.9749 43.5329 41.5827 43.3255 40.2031 42.9531V40.9219C41.7689 41.4297 43.3516 41.6836 44.9512 41.6836C47.0755 41.6836 48.1377 41.0488 48.1377 39.7793C48.1377 38.5944 47.3971 38.002 45.916 38.002H44.0117C41.1341 38.002 39.6953 36.6901 39.6953 34.0664C39.6953 31.7305 41.2568 30.4694 44.3799 30.2832ZM53.0254 39.0176C53.0254 34.3118 55.8099 30.4059 61.3789 27.2998L62.5977 28.9121C59.5339 30.4017 57.3587 32.4287 56.0723 34.9932C57.181 34.5446 58.5182 34.3203 60.084 34.3203C64.4342 34.3203 66.6094 36.2246 66.6094 40.0332C66.6094 44.0957 64.3115 46.127 59.7158 46.127C55.2555 46.127 53.0254 43.7572 53.0254 39.0176ZM55.2471 38.9414C55.2471 42.4622 56.7747 44.2227 59.8301 44.2227C62.8177 44.2227 64.3115 42.8262 64.3115 40.0332C64.3115 37.4941 62.8643 36.2246 59.9697 36.2246C58.1585 36.2246 56.7028 36.4277 55.6025 36.834C55.3656 37.3418 55.2471 38.0443 55.2471 38.9414ZM69.7197 27.8457H80.6885V29.75H71.7256L71.4209 35.3613C72.4111 35.1751 73.4521 35.082 74.5439 35.082C79.1143 35.082 81.3994 36.8171 81.3994 40.2871C81.3994 44.1803 79.0296 46.127 74.29 46.127C72.682 46.127 71.0316 45.873 69.3389 45.3652V43.334C71.0316 43.9264 72.7243 44.2227 74.417 44.2227C77.5062 44.2227 79.0508 42.9108 79.0508 40.2871C79.0508 38.0866 77.5485 36.9863 74.5439 36.9863C72.6396 36.9863 70.9046 37.1556 69.3389 37.4941L69.7197 27.8457ZM86.2998 43.6514V46H83.9512V43.6514H86.2998ZM102.436 34.917C102.436 39.6227 99.651 43.5286 94.082 46.6348L92.8633 45.0225C95.9271 43.5329 98.1022 41.5059 99.3887 38.9414C98.2799 39.4746 96.9427 39.7412 95.377 39.7412C91.0267 39.7412 88.8516 37.7946 88.8516 33.9014C88.8516 29.8389 91.1494 27.8076 95.7451 27.8076C100.205 27.8076 102.436 30.1774 102.436 34.917ZM100.214 34.9932C100.214 31.4723 98.6862 29.7119 95.6309 29.7119C92.6432 29.7119 91.1494 31.1084 91.1494 33.9014C91.1494 36.4404 92.5967 37.71 95.4912 37.71C97.3024 37.71 98.7581 37.5068 99.8584 37.1006C100.095 36.5928 100.214 35.8903 100.214 34.9932ZM118.432 34.917C118.432 39.6227 115.647 43.5286 110.078 46.6348L108.859 45.0225C111.923 43.5329 114.098 41.5059 115.385 38.9414C114.276 39.4746 112.939 39.7412 111.373 39.7412C107.023 39.7412 104.848 37.7946 104.848 33.9014C104.848 29.8389 107.146 27.8076 111.741 27.8076C116.201 27.8076 118.432 30.1774 118.432 34.917ZM116.21 34.9932C116.21 31.4723 114.682 29.7119 111.627 29.7119C108.639 29.7119 107.146 31.1084 107.146 33.9014C107.146 36.4404 108.593 37.71 111.487 37.71C113.299 37.71 114.754 37.5068 115.854 37.1006C116.091 36.5928 116.21 35.8903 116.21 34.9932Z" fill="white"/>
</svg>
