<svg width="149" height="56" viewBox="0 0 149 56" fill="none" xmlns="http://www.w3.org/2000/svg">
<path d="M111.507 55.2009L143.378 17.6639H79.6367L111.507 55.2009Z" fill="#F34E57"/>
<rect x="9.20068" y="17.6643" width="102.307" height="37.537" fill="#F34E57"/>
<path d="M35.2773 30.2832V27.8457H37.499V30.3086C38.6331 30.3932 39.7588 30.5879 40.876 30.8926V32.9238C39.3102 32.416 37.7318 32.1621 36.1406 32.1621C33.9232 32.1621 32.8145 32.7969 32.8145 34.0664C32.8145 35.2513 33.5127 35.8438 34.9092 35.8438H36.8135C39.8604 35.8438 41.3838 37.1556 41.3838 39.7793C41.3838 41.9036 40.0889 43.1393 37.499 43.4863V46H35.2773V43.5752C33.8724 43.5329 32.4801 43.3255 31.1006 42.9531V40.9219C32.6663 41.4297 34.249 41.6836 35.8486 41.6836C37.973 41.6836 39.0352 41.0488 39.0352 39.7793C39.0352 38.5944 38.2946 38.002 36.8135 38.002H34.9092C32.0316 38.002 30.5928 36.6901 30.5928 34.0664C30.5928 31.7305 32.1543 30.4694 35.2773 30.2832ZM45.8271 46V30.1182H43.9229V28.9883L48.1758 27.7188V46H45.8271ZM52.8223 27.8457H63.791V29.75H54.8281L54.5234 35.3613C55.5137 35.1751 56.5547 35.082 57.6465 35.082C62.2168 35.082 64.502 36.8171 64.502 40.2871C64.502 44.1803 62.1322 46.127 57.3926 46.127C55.7845 46.127 54.1341 45.873 52.4414 45.3652V43.334C54.1341 43.9264 55.8268 44.2227 57.5195 44.2227C60.6087 44.2227 62.1533 42.9108 62.1533 40.2871C62.1533 38.0866 60.651 36.9863 57.6465 36.9863C55.7422 36.9863 54.0072 37.1556 52.4414 37.4941L52.8223 27.8457ZM69.4023 43.6514V46H67.0537V43.6514H69.4023ZM85.5381 34.917C85.5381 39.6227 82.7536 43.5286 77.1846 46.6348L75.9658 45.0225C79.0296 43.5329 81.2048 41.5059 82.4912 38.9414C81.3825 39.4746 80.0452 39.7412 78.4795 39.7412C74.1292 39.7412 71.9541 37.7946 71.9541 33.9014C71.9541 29.8389 74.252 27.8076 78.8477 27.8076C83.3079 27.8076 85.5381 30.1774 85.5381 34.917ZM83.3164 34.9932C83.3164 31.4723 81.7887 29.7119 78.7334 29.7119C75.7458 29.7119 74.252 31.1084 74.252 33.9014C74.252 36.4404 75.6992 37.71 78.5938 37.71C80.4049 37.71 81.8607 37.5068 82.9609 37.1006C83.1979 36.5928 83.3164 35.8903 83.3164 34.9932ZM101.534 34.917C101.534 39.6227 98.7497 43.5286 93.1807 46.6348L91.9619 45.0225C95.0257 43.5329 97.2008 41.5059 98.4873 38.9414C97.3786 39.4746 96.0413 39.7412 94.4756 39.7412C90.1253 39.7412 87.9502 37.7946 87.9502 33.9014C87.9502 29.8389 90.248 27.8076 94.8438 27.8076C99.304 27.8076 101.534 30.1774 101.534 34.917ZM99.3125 34.9932C99.3125 31.4723 97.7848 29.7119 94.7295 29.7119C91.7419 29.7119 90.248 31.1084 90.248 33.9014C90.248 36.4404 91.6953 37.71 94.5898 37.71C96.401 37.71 97.8568 37.5068 98.957 37.1006C99.194 36.5928 99.3125 35.8903 99.3125 34.9932Z" fill="white"/>
</svg>
