<svg width="249" height="39" viewBox="0 0 249 39" fill="none" xmlns="http://www.w3.org/2000/svg">
<path d="M0.576172 38V0.294922H15.8691C23.5684 0.294922 27.418 3.66113 27.418 10.3936C27.418 17.7236 22.1533 22.1973 11.624 23.8145L10.6221 19.7012C18.3564 18.5586 22.2236 15.5264 22.2236 10.6045C22.2236 6.4209 19.9561 4.3291 15.4209 4.3291H5.4541V38H0.576172ZM33.6406 23.4453V0.294922H38.5186V23.4453C38.5186 30.6875 42.1221 34.3086 49.3291 34.3086C56.5361 34.3086 60.1396 30.6875 60.1396 23.4453V0.294922H65.0176V23.4453C65.0176 33.3242 59.7881 38.2637 49.3291 38.2637C38.8701 38.2637 33.6406 33.3242 33.6406 23.4453ZM102.195 36.5234C99.1543 37.6836 95.876 38.2637 92.3604 38.2637C78.7021 38.2637 71.873 31.7158 71.873 18.6201C71.873 6.22754 78.4648 0.03125 91.6484 0.03125C95.4277 0.03125 98.9434 0.558594 102.195 1.61328V5.83203C98.9434 4.60156 95.6035 3.98633 92.1758 3.98633C81.8926 3.98633 76.751 8.86426 76.751 18.6201C76.751 29.0791 81.8135 34.3086 91.9385 34.3086C93.5557 34.3086 95.3486 34.0977 97.3174 33.6758V20.8613H102.195V36.5234ZM110.264 38V0.294922H115.142V16.9062H137.422V0.294922H142.3V38H137.422V20.8613H115.142V38H110.264ZM152.53 38H147.468L163.473 0.294922H168.878L184.962 38H179.557L174.679 26.1348H162.207L163.552 22.1797H173.044L166.004 5.09375L152.53 38ZM215.548 0.294922V4.25H203.683V38H198.805V4.25H186.939V0.294922H215.548ZM220.848 36.6816V32.1992C224.803 33.6055 229.074 34.3086 233.662 34.3086C240.148 34.3086 243.392 31.9355 243.392 27.1895C243.392 23.1465 241.001 21.125 236.22 21.125H231.368C223.476 21.125 219.529 17.6973 219.529 10.8418C219.529 3.63477 224.583 0.03125 234.69 0.03125C239.085 0.03125 243.172 0.558594 246.951 1.61328V6.0957C243.172 4.68945 239.085 3.98633 234.69 3.98633C227.835 3.98633 224.407 6.27148 224.407 10.8418C224.407 14.8848 226.728 16.9062 231.368 16.9062H236.22C244.253 16.9062 248.27 20.334 248.27 27.1895C248.27 34.5723 243.4 38.2637 233.662 38.2637C229.074 38.2637 224.803 37.7363 220.848 36.6816Z" fill="white"/>
</svg>
