<svg width="1206" height="21" viewBox="0 0 1206 21" fill="none" xmlns="http://www.w3.org/2000/svg">
<path d="M1025.25 16.4434C1024.11 16.8763 1022.81 17.0928 1021.36 17.0928C1016.59 17.0928 1014.21 14.7889 1014.21 10.1812C1014.21 5.8208 1016.59 3.64062 1021.36 3.64062C1022.81 3.64062 1024.11 3.8571 1025.25 4.29004V6.5166C1024.11 6.02181 1022.87 5.77441 1021.54 5.77441C1018.36 5.77441 1016.76 7.24333 1016.76 10.1812C1016.76 13.3664 1018.36 14.959 1021.54 14.959C1022.87 14.959 1024.11 14.7116 1025.25 14.2168V16.4434ZM1030.03 3.7334V17H1027.57V3.7334H1030.03ZM1035.72 17C1034.06 13.8519 1033.02 12.0552 1032.59 11.6099C1032.17 11.1646 1031.72 10.9419 1031.24 10.9419V9.15137C1032.1 9.15137 1032.92 8.24837 1033.68 6.44238C1034.44 4.63639 1035.69 3.7334 1037.41 3.7334H1038.4V5.68164H1037.67C1037 5.68164 1036.38 6.33724 1035.82 7.64844C1035.26 8.95345 1034.48 9.72656 1033.48 9.96777C1033.96 10.1038 1034.47 10.4285 1034.99 10.9419C1035.53 11.4552 1036.8 13.4746 1038.82 17H1035.72ZM1042.54 10.3296C1042.54 13.4159 1043.91 14.959 1046.65 14.959C1049.32 14.959 1050.65 13.4159 1050.65 10.3296C1050.65 7.29281 1049.32 5.77441 1046.65 5.77441C1043.91 5.77441 1042.54 7.29281 1042.54 10.3296ZM1039.98 10.3853C1039.98 5.88883 1042.21 3.64062 1046.65 3.64062C1051.02 3.64062 1053.21 5.88883 1053.21 10.3853C1053.21 14.8569 1051.02 17.0928 1046.65 17.0928C1042.4 17.0928 1040.18 14.8569 1039.98 10.3853ZM1055.53 17V3.7334H1061.47C1064.18 3.7334 1065.53 4.97965 1065.53 7.47217C1065.53 10.175 1063.68 11.8109 1059.98 12.3799L1059.62 10.1904C1061.85 9.78841 1062.96 8.90706 1062.96 7.54639C1062.96 6.44548 1062.41 5.89502 1061.31 5.89502H1057.99V17H1055.53ZM1069.25 10.3296C1069.25 13.4159 1070.62 14.959 1073.36 14.959C1076.04 14.959 1077.37 13.4159 1077.37 10.3296C1077.37 7.29281 1076.04 5.77441 1073.36 5.77441C1070.62 5.77441 1069.25 7.29281 1069.25 10.3296ZM1066.7 10.3853C1066.7 5.88883 1068.92 3.64062 1073.36 3.64062C1077.74 3.64062 1079.92 5.88883 1079.92 10.3853C1079.92 14.8569 1077.74 17.0928 1073.36 17.0928C1069.12 17.0928 1066.9 14.8569 1066.7 10.3853ZM1086.43 17V3.7334H1092.64C1095.17 3.7334 1096.43 4.76318 1096.43 6.82275C1096.43 8.33187 1095.61 9.41113 1093.96 10.0605C1095.72 10.3883 1096.6 11.3934 1096.6 13.0757C1096.6 15.6919 1095.21 17 1092.45 17H1086.43ZM1092.35 14.8662C1093.43 14.8662 1093.98 14.3096 1093.98 13.1963C1093.98 11.8171 1093.17 11.1274 1091.54 11.1274H1090.8V9.54102C1092.84 9.20085 1093.86 8.34733 1093.86 6.98047C1093.86 6.23828 1093.4 5.86719 1092.49 5.86719H1088.89V14.8662H1092.35ZM1102.87 17V3.7334H1114.6V17H1112.14V5.86719H1105.33V17H1102.87ZM1117.4 17V3.7334H1123.33C1126.04 3.7334 1127.4 4.97965 1127.4 7.47217C1127.4 10.175 1125.54 11.8109 1121.84 12.3799L1121.49 10.1904C1123.71 9.78841 1124.83 8.90706 1124.83 7.54639C1124.83 6.44548 1124.28 5.89502 1123.17 5.89502H1119.85V17H1117.4ZM1131.12 10.3296C1131.12 13.4159 1132.49 14.959 1135.23 14.959C1137.9 14.959 1139.23 13.4159 1139.23 10.3296C1139.23 7.29281 1137.9 5.77441 1135.23 5.77441C1132.49 5.77441 1131.12 7.29281 1131.12 10.3296ZM1128.56 10.3853C1128.56 5.88883 1130.79 3.64062 1135.23 3.64062C1139.6 3.64062 1141.79 5.88883 1141.79 10.3853C1141.79 14.8569 1139.6 17.0928 1135.23 17.0928C1130.98 17.0928 1128.76 14.8569 1128.56 10.3853ZM1148.08 14.8662H1154.36V5.86719H1150.74C1150.74 10.8089 1149.85 13.8086 1148.08 14.8662ZM1142.72 20.5254V14.8662H1144.43C1147 14.8662 1148.28 11.8665 1148.28 5.86719V3.7334H1156.81V14.8662H1158.53V20.5254H1156.07V17H1145.17V20.5254H1142.72ZM1161.99 17H1159.47L1165.1 3.7334H1167.74L1173.5 17H1170.85L1169.34 13.3818H1164.93L1165.78 11.248H1168.45L1166.36 6.26611L1161.99 17ZM1173.96 17C1175.98 13.4746 1177.25 11.4552 1177.77 10.9419C1178.3 10.4285 1178.81 10.1038 1179.29 9.96777C1178.29 9.72656 1177.51 8.95345 1176.95 7.64844C1176.39 6.33724 1175.78 5.68164 1175.11 5.68164H1174.38V3.7334H1175.37C1177.09 3.7334 1178.33 4.63639 1179.09 6.44238C1179.86 8.24837 1180.67 9.15137 1181.54 9.15137V10.9419C1181.06 10.9419 1180.6 11.1646 1180.17 11.6099C1179.75 12.0552 1178.72 13.8519 1177.06 17H1173.96ZM1185.2 3.7334V17H1182.74V3.7334H1185.2ZM1190.89 17C1189.23 13.8519 1188.19 12.0552 1187.76 11.6099C1187.34 11.1646 1186.89 10.9419 1186.41 10.9419V9.15137C1187.28 9.15137 1188.09 8.24837 1188.85 6.44238C1189.62 4.63639 1190.86 3.7334 1192.58 3.7334H1193.57V5.68164H1192.84C1192.17 5.68164 1191.56 6.33724 1190.99 7.64844C1190.44 8.95345 1189.66 9.72656 1188.65 9.96777C1189.14 10.1038 1189.64 10.4285 1190.17 10.9419C1190.7 11.4552 1191.97 13.4746 1193.99 17H1190.89ZM1204.7 3.7334V5.84863H1198.06V9.18848H1204.39V11.3872H1198.03V14.8662H1204.83V17H1195.62V3.7334H1204.7Z" fill="black"/>
<path d="M632.008 16.4434C630.864 16.8763 629.565 17.0928 628.112 17.0928C623.349 17.0928 620.968 14.7889 620.968 10.1812C620.968 5.8208 623.349 3.64062 628.112 3.64062C629.565 3.64062 630.864 3.8571 632.008 4.29004V6.5166C630.864 6.02181 629.627 5.77441 628.297 5.77441C625.112 5.77441 623.52 7.24333 623.52 10.1812C623.52 13.3664 625.112 14.959 628.297 14.959C629.627 14.959 630.864 14.7116 632.008 14.2168V16.4434ZM634.328 17V3.7334H646.063V17H643.605V5.86719H636.786V17H634.328ZM657.938 3.7334V5.84863H651.296V9.18848H657.623V11.3872H651.268V14.8662H658.068V17H648.856V3.7334H657.938ZM660.341 17V3.7334H662.8V14.8662H668.941V3.7334H671.4V14.8662H673.116V20.5254H670.658V17H660.341ZM683.331 17V7.46289L677.068 17H674.703V3.7334H677.068V13.3911L683.331 3.7334H685.696V17H683.331ZM689.853 17H687.329L692.96 3.7334H695.604L701.356 17H698.712L697.2 13.3818H692.793L693.638 11.248H696.31L694.222 6.26611L689.853 17ZM701.588 15.0518C703.716 15.0518 704.78 13.5457 704.78 10.5337V3.7334H714.243V17H711.784V5.86719H707.238V10.5337C707.238 14.8446 705.355 17 701.588 17V15.0518ZM719.484 3.7334V14.8384H723.27C724.247 14.8384 724.735 14.3158 724.735 13.2705C724.735 12.1077 724.08 11.5264 722.769 11.5264H721.024V9.39258H722.852C725.821 9.39258 727.305 10.6512 727.305 13.1685C727.305 15.7228 726.013 17 723.427 17H717.026V3.7334H719.484ZM728.882 17V3.7334H731.341V9.11426H738.16V3.7334H740.618V17H738.16V11.248H731.341V17H728.882ZM745.869 3.7334V14.8384H749.654C750.632 14.8384 751.12 14.3158 751.12 13.2705C751.12 12.1077 750.465 11.5264 749.153 11.5264H747.409V9.39258H749.246C752.209 9.39258 753.69 10.6512 753.69 13.1685C753.69 15.7228 752.397 17 749.812 17H743.411V3.7334H745.869ZM754.822 17V3.7334H757.28V17H754.822ZM768.413 3.7334V5.84863H761.771V9.18848H768.098V11.3872H761.743V14.8662H768.543V17H759.331V3.7334H768.413ZM774.991 17V3.7334H786.727V17H784.268V5.86719H777.449V17H774.991ZM789.519 17V3.7334H795.457C798.166 3.7334 799.52 4.97965 799.52 7.47217C799.52 10.175 797.668 11.8109 793.963 12.3799L793.61 10.1904C795.837 9.78841 796.95 8.90706 796.95 7.54639C796.95 6.44548 796.4 5.89502 795.299 5.89502H791.978V17H789.519ZM810.235 3.7334V5.84863H803.593V9.18848H809.92V11.3872H803.565V14.8662H810.365V17H801.153V3.7334H810.235ZM816.609 14.8662H822.88V5.86719H819.262C819.262 10.8089 818.378 13.8086 816.609 14.8662ZM811.247 20.5254V14.8662H812.954C815.52 14.8662 816.804 11.8665 816.804 5.86719V3.7334H825.339V14.8662H827.055V20.5254H824.597V17H813.696V20.5254H811.247ZM827.76 15.0518C829.888 15.0518 830.952 13.5457 830.952 10.5337V3.7334H840.415V17H837.956V5.86719H833.41V10.5337C833.41 14.8446 831.527 17 827.76 17V15.0518ZM845.285 10.3296C845.285 13.4159 846.655 14.959 849.395 14.959C852.067 14.959 853.403 13.4159 853.403 10.3296C853.403 7.29281 852.067 5.77441 849.395 5.77441C846.655 5.77441 845.285 7.29281 845.285 10.3296ZM842.734 10.3853C842.734 5.88883 844.954 3.64062 849.395 3.64062C853.768 3.64062 855.954 5.88883 855.954 10.3853C855.954 14.8569 853.768 17.0928 849.395 17.0928C845.152 17.0928 842.932 14.8569 842.734 10.3853ZM857.123 17C859.139 13.4746 860.41 11.4552 860.936 10.9419C861.468 10.4285 861.975 10.1038 862.458 9.96777C861.456 9.72656 860.673 8.95345 860.11 7.64844C859.554 6.33724 858.941 5.68164 858.273 5.68164H857.541V3.7334H858.533C860.253 3.7334 861.493 4.63639 862.253 6.44238C863.02 8.24837 863.837 9.15137 864.703 9.15137V10.9419C864.22 10.9419 863.766 11.1646 863.339 11.6099C862.918 12.0552 861.879 13.8519 860.222 17H857.123ZM868.367 3.7334V17H865.909V3.7334H868.367ZM874.054 17C872.397 13.8519 871.354 12.0552 870.928 11.6099C870.507 11.1646 870.056 10.9419 869.573 10.9419V9.15137C870.439 9.15137 871.252 8.24837 872.013 6.44238C872.78 4.63639 874.023 3.7334 875.743 3.7334H876.735V5.68164H876.002C875.334 5.68164 874.719 6.33724 874.156 7.64844C873.6 8.95345 872.82 9.72656 871.818 9.96777C872.301 10.1038 872.805 10.4285 873.331 10.9419C873.862 11.4552 875.137 13.4746 877.153 17H874.054ZM887.868 3.7334V5.84863H881.226V9.18848H887.553V11.3872H881.198V14.8662H887.998V17H878.786V3.7334H887.868ZM890.271 17V3.7334H892.729V9.11426H899.548V3.7334H902.007V17H899.548V11.248H892.729V17H890.271ZM913.427 17V7.46289L907.165 17H904.799V3.7334H907.165V13.3911L913.427 3.7334H915.793V17H913.427ZM926.054 16.9814V5.89502H922.779C921.616 5.89502 921.035 6.41455 921.035 7.45361C921.035 8.81429 922.241 9.69564 924.653 10.0977V11.2202L920.617 17H917.426L921.628 11.2666C919.519 10.3389 918.465 9.07406 918.465 7.47217C918.465 4.97965 919.912 3.7334 922.807 3.7334H928.559V16.9814H926.054Z" fill="black"/>
<path d="M409.701 3.7334V5.86719H402.882V14.8384H405.916C407.202 14.8384 407.846 14.3158 407.846 13.2705C407.846 12.1077 407.035 11.5264 405.415 11.5264H404.413V9.39258H405.499C408.702 9.39258 410.304 10.6512 410.304 13.1685C410.304 15.7228 408.894 17 406.074 17H400.415V3.7334H409.701ZM421.483 3.7334V5.84863H414.841V9.18848H421.168V11.3872H414.813V14.8662H421.613V17H412.401V3.7334H421.483ZM434.462 16.4434C433.318 16.8763 432.019 17.0928 430.566 17.0928C425.804 17.0928 423.422 14.7889 423.422 10.1812C423.422 5.8208 425.804 3.64062 430.566 3.64062C432.019 3.64062 433.318 3.8571 434.462 4.29004V6.5166C433.318 6.02181 432.081 5.77441 430.751 5.77441C427.566 5.77441 425.974 7.24333 425.974 10.1812C425.974 13.3664 427.566 14.959 430.751 14.959C432.081 14.959 433.318 14.7116 434.462 14.2168V16.4434ZM445.456 3.7334V5.86719H441.652V17H439.194V5.86719H435.39V3.7334H445.456ZM457.433 16.4434C456.289 16.8763 454.99 17.0928 453.537 17.0928C448.774 17.0928 446.393 14.7889 446.393 10.1812C446.393 5.8208 448.774 3.64062 453.537 3.64062C454.99 3.64062 456.289 3.8571 457.433 4.29004V6.5166C456.289 6.02181 455.052 5.77441 453.722 5.77441C450.537 5.77441 448.944 7.24333 448.944 10.1812C448.944 13.3664 450.537 14.959 453.722 14.959C455.052 14.959 456.289 14.7116 457.433 14.2168V16.4434ZM468.835 3.7334V5.84863H462.192V9.18848H468.52V11.3872H462.165V14.8662H468.965V17H459.752V3.7334H468.835ZM469.846 15.0518C471.974 15.0518 473.038 13.5457 473.038 10.5337V3.7334H482.5V17H480.042V5.86719H475.496V10.5337C475.496 14.8446 473.613 17 469.846 17V15.0518ZM483.892 15.0518C486.02 15.0518 487.083 13.5457 487.083 10.5337V3.7334H496.546V17H494.088V5.86719H489.542V10.5337C489.542 14.8446 487.659 17 483.892 17V15.0518ZM508.412 3.7334V5.84863H501.77V9.18848H508.097V11.3872H501.742V14.8662H508.542V17H499.33V3.7334H508.412ZM510.815 17V3.7334H516.752C519.461 3.7334 520.816 4.97965 520.816 7.47217C520.816 10.175 518.964 11.8109 515.259 12.3799L514.906 10.1904C517.133 9.78841 518.246 8.90706 518.246 7.54639C518.246 6.44548 517.696 5.89502 516.595 5.89502H513.273V17H510.815ZM524.907 3.7334V14.8384H528.692C529.67 14.8384 530.158 14.3158 530.158 13.2705C530.158 12.1077 529.503 11.5264 528.191 11.5264H526.447V9.39258H528.284C531.247 9.39258 532.728 10.6512 532.728 13.1685C532.728 15.7228 531.435 17 528.85 17H522.449V3.7334H524.907ZM533.86 17V3.7334H536.318V17H533.86Z" fill="black"/>
<path d="M220.464 17V3.7334H222.922V9.11426H229.741V3.7334H232.2V17H229.741V11.248H222.922V17H220.464ZM237.08 10.3296C237.08 13.4159 238.45 14.959 241.189 14.959C243.861 14.959 245.197 13.4159 245.197 10.3296C245.197 7.29281 243.861 5.77441 241.189 5.77441C238.45 5.77441 237.08 7.29281 237.08 10.3296ZM234.528 10.3853C234.528 5.88883 236.749 3.64062 241.189 3.64062C245.562 3.64062 247.749 5.88883 247.749 10.3853C247.749 14.8569 245.562 17.0928 241.189 17.0928C236.947 17.0928 234.726 14.8569 234.528 10.3853ZM250.077 17V3.7334H256.293C258.816 3.7334 260.078 4.76318 260.078 6.82275C260.078 8.33187 259.256 9.41113 257.61 10.0605C259.367 10.3883 260.245 11.3934 260.245 13.0757C260.245 15.6919 258.863 17 256.098 17H250.077ZM255.996 14.8662C257.085 14.8662 257.629 14.3096 257.629 13.1963C257.629 11.8171 256.816 11.1274 255.189 11.1274H254.447V9.54102C256.488 9.20085 257.508 8.34733 257.508 6.98047C257.508 6.23828 257.051 5.86719 256.135 5.86719H252.536V14.8662H255.996ZM270.97 17V7.46289L264.708 17H262.342V3.7334H264.708V13.3911L270.97 3.7334H273.335V17H270.97ZM276.128 17V3.7334H278.586V9.11426H285.405V3.7334H287.864V17H285.405V11.248H278.586V17H276.128ZM293.115 3.7334V17H290.656V3.7334H293.115ZM298.802 17C297.144 13.8519 296.102 12.0552 295.675 11.6099C295.255 11.1646 294.803 10.9419 294.321 10.9419V9.15137C295.187 9.15137 296 8.24837 296.761 6.44238C297.528 4.63639 298.771 3.7334 300.49 3.7334H301.483V5.68164H300.75C300.082 5.68164 299.467 6.33724 298.904 7.64844C298.347 8.95345 297.568 9.72656 296.566 9.96777C297.048 10.1038 297.552 10.4285 298.078 10.9419C298.61 11.4552 299.884 13.4746 301.9 17H298.802ZM312.161 17V7.46289L305.899 17H303.533V3.7334H305.899V13.3911L312.161 3.7334H314.527V17H312.161Z" fill="black"/>
<path d="M1.48145 17V3.7334H13.2173V17H10.7588V5.86719H3.93994V17H1.48145ZM18.0972 10.3296C18.0972 13.4159 19.4671 14.959 22.207 14.959C24.8789 14.959 26.2148 13.4159 26.2148 10.3296C26.2148 7.29281 24.8789 5.77441 22.207 5.77441C19.4671 5.77441 18.0972 7.29281 18.0972 10.3296ZM15.5459 10.3853C15.5459 5.88883 17.7663 3.64062 22.207 3.64062C26.5798 3.64062 28.7661 5.88883 28.7661 10.3853C28.7661 14.8569 26.5798 17.0928 22.207 17.0928C17.9642 17.0928 15.7438 14.8569 15.5459 10.3853ZM31.0947 17V3.7334H42.8306V17H40.3721V5.86719H33.5532V17H31.0947ZM56.125 3.7334L51.5513 14.5137C50.8462 16.1712 49.6432 17 47.9424 17C47.1507 17 46.4209 16.7835 45.7529 16.3506V14.4023C46.4085 14.8353 47.1291 15.0518 47.9146 15.0518C48.7433 15.0518 49.2721 14.724 49.501 14.0684L44.6953 3.7334H47.3301L50.6235 11.4336L53.4902 3.7334H56.125ZM56.3662 15.0518C58.4938 15.0518 59.5576 13.5457 59.5576 10.5337V3.7334H69.0205V17H66.562V5.86719H62.0161V10.5337C62.0161 14.8446 60.1328 17 56.3662 17V15.0518ZM79.272 16.9814V5.89502H75.9971C74.8343 5.89502 74.2529 6.41455 74.2529 7.45361C74.2529 8.81429 75.459 9.69564 77.8711 10.0977V11.2202L73.8354 17H70.644L74.8467 11.2666C72.7376 10.3389 71.6831 9.07406 71.6831 7.47217C71.6831 4.97965 73.1304 3.7334 76.0249 3.7334H81.7769V16.9814H79.272ZM84.5693 17V3.7334H90.5068C93.2158 3.7334 94.5703 4.97965 94.5703 7.47217C94.5703 10.175 92.7179 11.8109 89.0132 12.3799L88.6606 10.1904C90.8872 9.78841 92.0005 8.90706 92.0005 7.54639C92.0005 6.44548 91.45 5.89502 90.3491 5.89502H87.0278V17H84.5693ZM96.2031 17V3.7334H98.6616V9.11426H105.48V3.7334H107.939V17H105.48V11.248H98.6616V17H96.2031ZM112.819 10.3296C112.819 13.4159 114.189 14.959 116.929 14.959C119.601 14.959 120.937 13.4159 120.937 10.3296C120.937 7.29281 119.601 5.77441 116.929 5.77441C114.189 5.77441 112.819 7.29281 112.819 10.3296ZM110.268 10.3853C110.268 5.88883 112.488 3.64062 116.929 3.64062C121.301 3.64062 123.488 5.88883 123.488 10.3853C123.488 14.8569 121.301 17.0928 116.929 17.0928C112.686 17.0928 110.465 14.8569 110.268 10.3853ZM134.899 3.7334V5.84863H128.256V9.18848H134.583V11.3872H128.229V14.8662H135.029V17H125.816V3.7334H134.899Z" fill="black"/>
</svg>
